<?xml version="1.0" encoding="UTF-8"?>
<svg id="Layer_1" data-name="Layer 1" xmlns="http://www.w3.org/2000/svg" viewBox="0 0 500 500">
  <defs>
    <style>
      .cls-1 {
        fill: #f8fafc;
      }

      .cls-2 {
        fill: #202939;
      }
    </style>
  </defs>
  <rect class="cls-2" width="500" height="500" rx="80" ry="80"/>
  <g>
    <path class="cls-1" d="M123.62,408.35c-12.24-11.1-18.35-26.62-18.35-46.54v-64.32c0-6.56-1.58-11.6-4.73-15.13-3.16-3.53-7.63-5.3-13.43-5.3h-12.11v-49.19h12.11c5.8,0,10.27-1.83,13.43-5.48,3.15-3.65,4.73-8.64,4.73-14.95v-69.24c0-19.92,6.11-35.44,18.35-46.54,12.23-11.1,29.82-16.65,52.78-16.65h18.92v49.19h-18.92c-9.59,0-14.38,5.17-14.38,15.51v62.43c0,10.85-2.08,20.56-6.24,29.13-4.16,8.58-10.03,15.39-17.59,20.43,7.57,4.29,13.43,10.53,17.59,18.73,4.16,8.2,6.24,17.47,6.24,27.81v62.05c0,10.34,4.79,15.52,14.38,15.52h18.92v49.19h-18.92c-22.95,0-40.55-5.55-52.78-16.65Z"/>
    <path class="cls-1" d="M304.69,375.81h18.92c9.58,0,14.38-5.17,14.38-15.52v-62.05c0-10.34,2.08-19.61,6.24-27.81,4.16-8.19,10.03-14.44,17.59-18.73-7.57-5.04-13.43-11.85-17.59-20.43-4.16-8.57-6.24-18.29-6.24-29.13v-62.43c0-10.34-4.8-15.51-14.38-15.51h-18.92v-49.19h18.92c22.95,0,40.54,5.55,52.78,16.65,12.23,11.1,18.35,26.62,18.35,46.54v69.24c0,6.31,1.64,11.29,4.92,14.95,3.28,3.66,7.69,5.48,13.24,5.48h12.11v49.19h-12.11c-5.55,0-9.96,1.77-13.24,5.3-3.28,3.53-4.92,8.58-4.92,15.13v64.32c0,19.92-6.12,35.44-18.35,46.54-12.23,11.1-29.83,16.65-52.78,16.65h-18.92v-49.19Z"/>
  </g>
</svg>